<svg width="18" height="19" viewBox="0 0 18 19" fill="none" xmlns="http://www.w3.org/2000/svg">
<path d="M17.8466 16.2404L10.3761 0.859909C10.2509 0.602126 10.0557 0.384776 9.81282 0.23271C9.56992 0.0806435 9.28913 -1.20782e-08 9.00255 0C8.71598 1.20782e-08 8.43519 0.0806435 8.19229 0.23271C7.94939 0.384776 7.75418 0.602127 7.62899 0.85991L0.158421 16.2404C0.0163504 16.5249 -0.031874 16.8471 0.0206775 17.1607C0.073229 17.4743 0.223851 17.7632 0.450899 17.9859C0.457555 17.9925 0.464411 17.9993 0.471198 18.0058C0.700983 18.2326 0.997645 18.3795 1.31734 18.4248C1.63704 18.47 1.96281 18.4112 2.24651 18.257L9.00249 14.6804L15.7586 18.2571C16.0432 18.4078 16.3682 18.4646 16.687 18.4195C17.0058 18.3743 17.3022 18.2296 17.5339 18.0058C17.7655 17.7821 17.9204 17.4909 17.9766 17.1738C18.0328 16.8567 17.9872 16.53 17.8466 16.2404Z" fill="#73BEC5"/>
</svg>
