<svg width="24" height="30" viewBox="0 0 24 30" fill="none" xmlns="http://www.w3.org/2000/svg">
<path fill-rule="evenodd" clip-rule="evenodd" d="M14.081 0.674233C14.7471 0.884185 15.2 1.50186 15.2 2.20021V10.2002L21.6 10.2002C22.1966 10.2002 22.7437 10.5321 23.0192 11.0613C23.2947 11.5905 23.2529 12.229 22.9108 12.7178L11.7108 28.7178C11.3103 29.2899 10.585 29.5361 9.91898 29.3262C9.25293 29.1162 8.8 28.4986 8.8 27.8002V19.8002H2.4C1.8034 19.8002 1.25635 19.4683 0.980834 18.9391C0.705318 18.4099 0.747101 17.7714 1.08923 17.2827L12.2892 1.28267C12.6897 0.710561 13.415 0.464281 14.081 0.674233Z" fill="white"/>
</svg>
