<svg width="20" height="20" viewBox="0 0 20 20" fill="none" xmlns="http://www.w3.org/2000/svg">
<path d="M10 18C14.4183 18 18 14.4183 18 10C18 5.58172 14.4183 2 10 2C5.58172 2 2 5.58172 2 10C2 14.4183 5.58172 18 10 18Z" fill="#EA9A3B"/>
<path d="M12.2583 8.6748H14.5083V6.4248" stroke="white" stroke-width="1.5" stroke-linecap="round" stroke-linejoin="round"/>
<path d="M7.08325 7.08318C7.46629 6.70014 7.92103 6.3963 8.4215 6.189C8.92197 5.9817 9.45836 5.875 10.0001 5.875C10.5418 5.875 11.0782 5.9817 11.5786 6.189C12.0791 6.3963 12.5338 6.70014 12.9169 7.08318L14.5079 8.67417" stroke="white" stroke-width="1.5" stroke-linecap="round" stroke-linejoin="round"/>
<path d="M7.7417 11.3252H5.4917V13.5752" stroke="white" stroke-width="1.5" stroke-linecap="round" stroke-linejoin="round"/>
<path d="M12.9163 12.9162C12.5333 13.2992 12.0785 13.6031 11.5781 13.8104C11.0776 14.0177 10.5412 14.1244 9.9995 14.1244C9.4578 14.1244 8.9214 14.0177 8.42094 13.8104C7.92047 13.6031 7.46573 13.2992 7.08269 12.9162L5.4917 11.3252" stroke="white" stroke-width="1.5" stroke-linecap="round" stroke-linejoin="round"/>
</svg>
