<svg width="20" height="20" viewBox="0 0 20 20" fill="none" xmlns="http://www.w3.org/2000/svg">
<path d="M18.0769 6.29068L2.2048 0.796413C1.93879 0.704315 1.65223 0.688934 1.37789 0.752027C1.10354 0.81512 0.852492 0.954142 0.653439 1.15319C0.454386 1.35225 0.315364 1.6033 0.252271 1.87764C0.189178 2.15198 0.20456 2.43854 0.296657 2.70456L5.79083 18.5768C5.88976 18.8731 6.08007 19.1304 6.33442 19.3117C6.58877 19.4931 6.89406 19.5891 7.20642 19.5861C7.21566 19.5861 7.22509 19.586 7.23434 19.5858C7.5515 19.5837 7.85959 19.4797 8.11308 19.2891C8.36656 19.0984 8.55199 18.8313 8.64196 18.5272L10.8503 11.3502L18.0275 9.14181C18.3298 9.04876 18.595 8.86251 18.7851 8.6097C18.9752 8.35689 19.0805 8.05044 19.086 7.73417C19.0915 7.4179 18.9969 7.10799 18.8156 6.84873C18.6344 6.58948 18.3759 6.39415 18.0769 6.29068H18.0769Z" fill="#73BEC5"/>
</svg>
