<svg width="62" height="68" viewBox="0 0 62 68" fill="none" xmlns="http://www.w3.org/2000/svg">
<g filter="url(#filter0_d_540_301)">
<path fill-rule="evenodd" clip-rule="evenodd" d="M20.9205 17.2478C26.4872 11.6811 35.5127 11.6811 41.0795 17.2478C46.6462 22.8146 46.6462 31.84 41.0795 37.4068L32.4399 46.0463C31.6447 46.8416 30.3553 46.8416 29.5601 46.0463L20.9205 37.4068C15.3538 31.84 15.3538 22.8146 20.9205 17.2478ZM31 31.4C33.2493 31.4 35.0727 29.5766 35.0727 27.3273C35.0727 25.078 33.2493 23.2546 31 23.2546C28.7507 23.2546 26.9273 25.078 26.9273 27.3273C26.9273 29.5766 28.7507 31.4 31 31.4Z" fill="#73BEC5"/>
<path fill-rule="evenodd" clip-rule="evenodd" d="M20.9205 17.2478C26.4872 11.6811 35.5127 11.6811 41.0795 17.2478C46.6462 22.8146 46.6462 31.84 41.0795 37.4068L32.4399 46.0463C31.6447 46.8416 30.3553 46.8416 29.5601 46.0463L20.9205 37.4068C15.3538 31.84 15.3538 22.8146 20.9205 17.2478ZM31 31.4C33.2493 31.4 35.0727 29.5766 35.0727 27.3273C35.0727 25.078 33.2493 23.2546 31 23.2546C28.7507 23.2546 26.9273 25.078 26.9273 27.3273C26.9273 29.5766 28.7507 31.4 31 31.4Z" stroke="white" stroke-width="1.25"/>
</g>
<defs>
<filter id="filter0_d_540_301" x="0.120443" y="0.447754" width="61.7591" height="66.8201" filterUnits="userSpaceOnUse" color-interpolation-filters="sRGB">
<feFlood flood-opacity="0" result="BackgroundImageFix"/>
<feColorMatrix in="SourceAlpha" type="matrix" values="0 0 0 0 0 0 0 0 0 0 0 0 0 0 0 0 0 0 127 0" result="hardAlpha"/>
<feOffset dy="4"/>
<feGaussianBlur stdDeviation="8"/>
<feColorMatrix type="matrix" values="0 0 0 0 0.0916667 0 0 0 0 0.0916667 0 0 0 0 0.0916667 0 0 0 0.2 0"/>
<feBlend mode="normal" in2="BackgroundImageFix" result="effect1_dropShadow_540_301"/>
<feBlend mode="normal" in="SourceGraphic" in2="effect1_dropShadow_540_301" result="shape"/>
</filter>
</defs>
</svg>
