<svg width="14" height="14" viewBox="0 0 14 14" fill="none" xmlns="http://www.w3.org/2000/svg">
<path d="M1.66667 3.00008C1.66667 2.2637 2.26363 1.66675 3.00001 1.66675H4.33334C5.06972 1.66675 5.66667 2.2637 5.66667 3.00008V4.33341C5.66667 5.06979 5.06972 5.66675 4.33334 5.66675H3.00001C2.26363 5.66675 1.66667 5.06979 1.66667 4.33341V3.00008Z" stroke="#757575" stroke-width="1.5" stroke-linecap="round" stroke-linejoin="round"/>
<path d="M8.33334 3.00008C8.33334 2.2637 8.93029 1.66675 9.66667 1.66675H11C11.7364 1.66675 12.3333 2.2637 12.3333 3.00008V4.33341C12.3333 5.06979 11.7364 5.66675 11 5.66675H9.66667C8.93029 5.66675 8.33334 5.06979 8.33334 4.33341V3.00008Z" stroke="#757575" stroke-width="1.5" stroke-linecap="round" stroke-linejoin="round"/>
<path d="M1.66667 9.66675C1.66667 8.93037 2.26363 8.33341 3.00001 8.33341H4.33334C5.06972 8.33341 5.66667 8.93037 5.66667 9.66675V11.0001C5.66667 11.7365 5.06972 12.3334 4.33334 12.3334H3.00001C2.26363 12.3334 1.66667 11.7365 1.66667 11.0001V9.66675Z" stroke="#757575" stroke-width="1.5" stroke-linecap="round" stroke-linejoin="round"/>
<path d="M8.33334 9.66675C8.33334 8.93037 8.93029 8.33341 9.66667 8.33341H11C11.7364 8.33341 12.3333 8.93037 12.3333 9.66675V11.0001C12.3333 11.7365 11.7364 12.3334 11 12.3334H9.66667C8.93029 12.3334 8.33334 11.7365 8.33334 11.0001V9.66675Z" stroke="#757575" stroke-width="1.5" stroke-linecap="round" stroke-linejoin="round"/>
</svg>
