<svg width="19" height="18" viewBox="0 0 19 18" fill="none" xmlns="http://www.w3.org/2000/svg">
<path d="M10.5 1C10.5 0.447715 10.0523 0 9.5 0C8.94772 0 8.5 0.447715 8.5 1H10.5ZM8.5 2C8.5 2.55228 8.94772 3 9.5 3C10.0523 3 10.5 2.55228 10.5 2H8.5ZM15.5 12C14.9477 12 14.5 12.4477 14.5 13C14.5 13.5523 14.9477 14 15.5 14V12ZM17.5 14C18.0523 14 18.5 13.5523 18.5 13C18.5 12.4477 18.0523 12 17.5 12V14ZM9.5 13V12C8.94772 12 8.5 12.4477 8.5 13H9.5ZM11.5 14C12.0523 14 12.5 13.5523 12.5 13C12.5 12.4477 12.0523 12 11.5 12V14ZM8.5 17C8.5 17.5523 8.94772 18 9.5 18C10.0523 18 10.5 17.5523 10.5 17H8.5ZM10.5 6C10.5 5.44772 10.0523 5 9.5 5C8.94772 5 8.5 5.44772 8.5 6H10.5ZM9.5 9H8.5C8.5 9.55229 8.94772 10 9.5 10V9ZM13.5 16C12.9477 16 12.5 16.4477 12.5 17C12.5 17.5523 12.9477 18 13.5 18V16ZM17.5 18C18.0523 18 18.5 17.5523 18.5 17C18.5 16.4477 18.0523 16 17.5 16V18ZM1.5 8C0.947715 8 0.5 8.44772 0.5 9C0.5 9.55229 0.947715 10 1.5 10V8ZM5.5 10C6.05228 10 6.5 9.55229 6.5 9C6.5 8.44772 6.05228 8 5.5 8V10ZM9.51 10C10.0623 10 10.51 9.55229 10.51 9C10.51 8.44772 10.0623 8 9.51 8V10ZM13.51 10C14.0623 10 14.51 9.55229 14.51 9C14.51 8.44772 14.0623 8 13.51 8V10ZM17.5 8C16.9477 8 16.5 8.44772 16.5 9C16.5 9.55229 16.9477 10 17.5 10V8ZM17.51 10C18.0623 10 18.51 9.55229 18.51 9C18.51 8.44772 18.0623 8 17.51 8V10ZM2.5 2H4.5V0H2.5V2ZM4.5 2V4H6.5V2H4.5ZM4.5 4H2.5V6H4.5V4ZM2.5 4V2H0.5V4H2.5ZM2.5 4H0.5C0.5 5.10457 1.39543 6 2.5 6V4ZM4.5 4V6C5.60457 6 6.5 5.10457 6.5 4H4.5ZM4.5 2H6.5C6.5 0.895431 5.60457 0 4.5 0V2ZM2.5 0C1.39543 0 0.5 0.895431 0.5 2H2.5V0ZM14.5 2H16.5V0H14.5V2ZM16.5 2V4H18.5V2H16.5ZM16.5 4H14.5V6H16.5V4ZM14.5 4V2H12.5V4H14.5ZM14.5 4H12.5C12.5 5.10457 13.3954 6 14.5 6V4ZM16.5 4V6C17.6046 6 18.5 5.10457 18.5 4H16.5ZM16.5 2H18.5C18.5 0.895431 17.6046 0 16.5 0V2ZM14.5 0C13.3954 0 12.5 0.895431 12.5 2H14.5V0ZM2.5 14H4.5V12H2.5V14ZM4.5 14V16H6.5V14H4.5ZM4.5 16H2.5V18H4.5V16ZM2.5 16V14H0.5V16H2.5ZM2.5 16H0.5C0.5 17.1046 1.39543 18 2.5 18V16ZM4.5 16V18C5.60457 18 6.5 17.1046 6.5 16H4.5ZM4.5 14H6.5C6.5 12.8954 5.60457 12 4.5 12V14ZM2.5 12C1.39543 12 0.5 12.8954 0.5 14H2.5V12ZM8.5 1V2H10.5V1H8.5ZM15.5 14H17.5V12H15.5V14ZM9.5 14H11.5V12H9.5V14ZM8.5 13V17H10.5V13H8.5ZM8.5 6V9H10.5V6H8.5ZM13.5 18H17.5V16H13.5V18ZM1.5 10H5.5V8H1.5V10ZM9.5 10H9.51V8H9.5V10ZM17.5 10H17.51V8H17.5V10ZM9.5 10H13.51V8H9.5V10Z" fill="white"/>
</svg>
