<svg width="14" height="14" viewBox="0 0 14 14" fill="none" xmlns="http://www.w3.org/2000/svg">
<path d="M1.33689 1.97264L4.99971 12.5541C5.0342 12.6537 5.09931 12.7399 5.18573 12.8003C5.27215 12.8608 5.37546 12.8923 5.48089 12.8905C5.58631 12.8886 5.68846 12.8535 5.77273 12.7901C5.857 12.7268 5.91908 12.6384 5.95009 12.5376L7.42231 7.75286C7.4463 7.67491 7.48898 7.60401 7.54665 7.54635C7.60432 7.48868 7.67521 7.44599 7.75316 7.42201L12.5379 5.94979C12.6387 5.91878 12.7271 5.8567 12.7904 5.77243C12.8538 5.68816 12.8889 5.58601 12.8908 5.48058C12.8926 5.37516 12.8611 5.27185 12.8006 5.18543C12.7402 5.09901 12.654 5.0339 12.5544 4.9994L1.97294 1.33659C1.88427 1.3059 1.78875 1.30077 1.69731 1.32181C1.60586 1.34284 1.52218 1.38918 1.45583 1.45553C1.38948 1.52188 1.34314 1.60556 1.32211 1.697C1.30108 1.78845 1.3062 1.88397 1.33689 1.97264V1.97264Z" stroke="#757575" stroke-width="1.5" stroke-linecap="round" stroke-linejoin="round"/>
</svg>
