<svg width="160" height="36" viewBox="0 0 160 36" fill="none" xmlns="http://www.w3.org/2000/svg">
<g clip-path="url(#clip0_195_3506)">
<path d="M31.5128 0.218027C30.4491 1.38612 29.562 2.37358 28.6629 3.34498C26.1862 6.01834 23.7175 8.69571 21.2128 11.345C20.7471 11.8347 20.7712 12.1478 21.2128 12.5893C23.0552 14.4117 24.8535 16.2783 26.696 18.1006C27.1295 18.5301 27.1536 18.8031 26.7361 19.2768C22.4009 24.19 18.0979 29.1232 13.7747 34.0445C13.462 34.507 13.0383 34.8838 12.5424 35.1403C13.8871 32.0936 15.1716 29.1915 16.4561 26.3094C16.998 25.0811 17.5239 23.8488 18.1019 22.6405C18.234 22.4423 18.284 22.2005 18.2413 21.9661C18.1986 21.7317 18.0666 21.5231 17.8731 21.3841C15.7015 19.4453 13.55 17.4865 11.3944 15.5357C10.9328 15.1343 10.6679 15.0138 10.4953 15.8086C9.92526 18.4218 9.26294 21.0269 8.68893 23.624C8.54844 24.2622 8.34372 24.5472 7.64126 24.5352C5.36529 24.491 3.08531 24.487 0.817369 24.5352C0.0145581 24.5352 -0.0978344 24.2261 0.0627278 23.5597C1.88243 15.9759 3.6901 8.39064 5.48572 0.804075C5.62621 0.197953 5.85902 -0.018806 6.50127 0.00126428C8.77724 0.057461 11.0532 0.0695051 13.3252 0.0534489C14.0196 0.0534489 14.1561 0.322392 14.0156 0.920486C13.3252 3.83469 12.6347 6.74488 11.9684 9.66309C11.9202 9.87985 11.567 10.1528 11.9002 10.3294C12.2333 10.506 12.3819 10.1127 12.5384 9.89992C14.7742 6.94156 17.0101 3.98722 19.2138 1.0088C19.3667 0.751462 19.587 0.540725 19.8508 0.399264C20.1146 0.257803 20.412 0.190976 20.711 0.205985C24.2233 0.234083 27.6995 0.218027 31.5128 0.218027Z" fill="white"/>
<path d="M97.9655 24.5392C96.97 24.5392 95.9585 24.499 94.9871 24.5392C94.2164 24.5793 93.827 24.3786 93.7106 23.5397C93.5701 22.5362 93.2169 21.5648 93.0041 20.5693C92.9965 20.4665 92.9676 20.3665 92.9194 20.2754C92.8712 20.1843 92.8047 20.1042 92.724 20.0401C92.6433 19.976 92.5502 19.9293 92.4506 19.9029C92.3509 19.8765 92.2469 19.8711 92.1451 19.8869C88.5244 19.8869 84.9038 19.8869 81.2831 19.8869C81.0784 19.8867 80.8775 19.9418 80.7016 20.0464C80.5256 20.151 80.3812 20.3011 80.2836 20.481C79.4808 21.637 78.678 22.773 77.8752 23.925C77.7512 24.1299 77.5733 24.2966 77.3609 24.4071C77.1485 24.5175 76.9098 24.5674 76.6709 24.5512C74.3629 24.5231 72.0548 24.5512 69.7507 24.5512C69.5059 24.5512 69.1727 24.6757 69.0362 24.4308C68.8997 24.1859 69.1847 23.909 69.3493 23.6962C74.126 17.4638 78.9054 11.2339 83.6875 5.0068C84.6388 3.76646 85.6062 2.53816 86.5254 1.27373C86.7053 0.994272 86.9582 0.769437 87.2569 0.623655C87.5555 0.477873 87.8884 0.41672 88.2194 0.44684C90.2023 0.499022 92.1933 0.499022 94.1802 0.44684C94.9549 0.422755 95.3242 0.663596 95.537 1.42225C96.8456 6.08658 98.1943 10.7389 99.551 15.3952C100.324 18.0926 101.104 20.786 101.891 23.4755C102.192 24.503 102.16 24.5512 101.088 24.5552C100.017 24.5592 98.9891 24.5392 97.9655 24.5392ZM87.9866 14.781C88.974 14.781 89.9655 14.781 90.9529 14.781C91.4226 14.781 91.5751 14.6566 91.4467 14.1629C90.9048 12.0715 90.395 9.97219 89.8812 7.87284C89.7648 7.40721 89.5721 7.32292 89.2791 7.73636C87.7578 9.89592 86.2444 12.0595 84.7191 14.215C84.4341 14.6164 84.5465 14.777 85.0162 14.773L87.9866 14.781Z" fill="white"/>
<path d="M149.558 0.0213645C153.115 0.0213645 156.229 0.450868 159.224 1.62699C159.942 1.90797 160.276 2.16487 159.726 2.96768C158.988 4.05485 158.318 5.18626 157.719 6.35554C157.369 7.01385 157.08 7.15835 156.33 6.83321C153.461 5.53136 150.278 5.08533 147.162 5.54871C146.427 5.63393 145.721 5.88216 145.094 6.27526C143.834 7.11419 143.89 8.28229 145.275 8.91249C146.66 9.5427 148.274 9.7996 149.799 10.1689C151.694 10.6305 153.604 11.0159 155.342 11.9792C159.055 14.0384 158.554 18.0003 156.924 20.3124C155.567 22.2271 153.624 23.347 151.433 23.9692C145.347 25.7033 139.346 25.2938 133.466 23.0299C132.137 22.5201 132.157 22.472 132.904 21.3039C133.61 20.2 134.341 19.1122 134.995 17.9802C135.336 17.3942 135.674 17.3621 136.244 17.639C139.399 19.1786 142.906 19.8545 146.407 19.5979C147.375 19.5742 148.321 19.2974 149.149 18.7951C150.184 18.1167 150.152 17.0329 149.056 16.4509C147.961 15.8688 146.648 15.6481 145.396 15.3189C143.874 14.9416 142.357 14.5522 140.844 14.1147C140.018 13.8556 139.23 13.4899 138.499 13.0269C134.915 10.9195 135.649 6.17892 137.697 4.01534C139.744 1.85177 142.22 0.952618 144.966 0.402692C146.477 0.0994578 148.018 -0.028492 149.558 0.0213645Z" fill="white"/>
<path d="M121.877 0.446793C125.851 0.446793 129.829 0.446793 133.803 0.446793C134.57 0.446793 134.847 0.591296 134.606 1.42221C134.253 2.61018 133.963 3.81611 133.739 5.03485C133.598 5.78548 133.249 5.98618 132.506 5.97012C130.202 5.92195 127.89 5.97013 125.586 5.93802C124.924 5.93802 124.639 6.12667 124.482 6.79702C123.174 12.3766 121.805 17.9441 120.496 23.5236C120.312 24.3264 119.991 24.5913 119.156 24.5672C117.076 24.503 114.989 24.511 112.906 24.5672C112.103 24.5672 112.023 24.3706 112.203 23.644C113.56 18.1126 114.877 12.5652 116.217 7.02582C116.47 5.9621 116.47 5.95808 115.35 5.95808C113.042 5.95808 110.734 5.95808 108.426 5.95808C107.832 5.95808 107.623 5.85774 107.812 5.21549C108.173 3.95909 108.49 2.69065 108.743 1.41418C108.888 0.67961 109.213 0.426719 109.972 0.430733C113.929 0.46686 117.903 0.446793 121.877 0.446793Z" fill="white"/>
<path d="M56.5565 24.5392C53.2249 24.5392 49.8892 24.5392 46.5575 24.5392C45.8912 24.5392 45.5781 24.5031 45.7828 23.6682C47.3242 17.3902 48.8174 11.1002 50.3267 4.80213C50.6077 3.62601 50.9529 2.45792 51.1295 1.26976C51.2459 0.551241 51.5711 0.406733 52.2173 0.414761C54.3327 0.446874 56.4522 0.458916 58.5635 0.414761C59.3945 0.414761 59.5309 0.643562 59.3423 1.41827C58.1782 6.21105 57.0543 11.0159 55.9183 15.8167C55.7256 16.6195 55.6012 17.4504 55.3443 18.2251C55.0874 18.9998 55.4125 19.0279 56.0106 19.0279C59.8922 19.0279 63.7698 19.0279 67.6514 19.0279C68.8355 19.0279 68.8556 19.0279 68.5545 20.2322C68.2535 21.4364 67.9645 22.5804 67.7076 23.7645C67.5751 24.3747 67.266 24.5673 66.6438 24.5673C63.2921 24.5232 59.9243 24.5392 56.5565 24.5392Z" fill="white"/>
<path d="M34.2946 24.5392C33.2068 24.5392 32.115 24.5111 31.0271 24.5392C30.3207 24.5632 30.136 24.3545 30.3126 23.648C31.2881 19.6942 32.2314 15.7323 33.1787 11.7705C33.9815 8.36654 34.8365 4.96663 35.5871 1.55468C35.7878 0.659548 36.1571 0.378574 37.0683 0.410687C39.1155 0.486954 41.1667 0.446813 43.2178 0.410687C43.9002 0.410687 44.0929 0.571245 43.9163 1.30983C42.1287 8.66893 40.3719 16.028 38.6458 23.3871C38.4411 24.2622 38.0798 24.5913 37.1646 24.5151C36.2494 24.4388 35.2539 24.5392 34.2946 24.5392Z" fill="white"/>
</g>
<defs>
<clipPath id="clip0_195_3506">
<rect width="160" height="36" fill="white"/>
</clipPath>
</defs>
</svg>
