<svg width="32" height="36" viewBox="0 0 32 36" fill="none" xmlns="http://www.w3.org/2000/svg">
<path d="M31.5128 0.218027C30.4491 1.38612 29.562 2.37358 28.6629 3.34498C26.1862 6.01834 23.7175 8.69571 21.2128 11.345C20.7471 11.8347 20.7712 12.1478 21.2128 12.5893C23.0552 14.4117 24.8535 16.2783 26.696 18.1006C27.1295 18.5301 27.1536 18.8031 26.7361 19.2768C22.4009 24.19 18.0979 29.1232 13.7747 34.0445C13.462 34.507 13.0383 34.8838 12.5424 35.1403C13.8871 32.0936 15.1716 29.1915 16.4561 26.3094C16.998 25.0811 17.5239 23.8488 18.1019 22.6405C18.234 22.4423 18.284 22.2005 18.2413 21.9661C18.1986 21.7317 18.0666 21.5231 17.8731 21.3841C15.7015 19.4453 13.55 17.4865 11.3944 15.5357C10.9328 15.1343 10.6679 15.0138 10.4953 15.8086C9.92526 18.4218 9.26294 21.0269 8.68893 23.624C8.54844 24.2622 8.34372 24.5472 7.64126 24.5352C5.36529 24.491 3.08531 24.487 0.817369 24.5352C0.0145581 24.5352 -0.0978344 24.2261 0.0627278 23.5597C1.88243 15.9759 3.6901 8.39064 5.48572 0.804075C5.62621 0.197953 5.85902 -0.018806 6.50127 0.00126428C8.77724 0.057461 11.0532 0.0695051 13.3252 0.0534489C14.0196 0.0534489 14.1561 0.322392 14.0156 0.920486C13.3252 3.83469 12.6347 6.74488 11.9684 9.66309C11.9202 9.87985 11.567 10.1528 11.9002 10.3294C12.2333 10.506 12.3819 10.1127 12.5384 9.89992C14.7742 6.94156 17.0101 3.98722 19.2138 1.0088C19.3667 0.751462 19.587 0.540725 19.8508 0.399264C20.1146 0.257803 20.412 0.190976 20.711 0.205985C24.2233 0.234083 27.6995 0.218027 31.5128 0.218027Z" fill="white"/>
</svg>
