<svg width="320" height="360" viewBox="0 0 320 360" fill="none" xmlns="http://www.w3.org/2000/svg">
<g clip-path="url(#clip0_146_3960)">
<path d="M315.128 2.18027C304.491 13.8612 295.62 23.7358 286.629 33.4498C261.862 60.1834 237.175 86.9571 212.128 113.45C207.471 118.347 207.712 121.478 212.128 125.893C230.552 144.117 248.535 162.783 266.96 181.006C271.295 185.301 271.536 188.031 267.361 192.768C224.009 241.9 180.979 291.232 137.747 340.445C134.62 345.07 130.383 348.838 125.424 351.403C138.871 320.936 151.716 291.915 164.561 263.094C169.98 250.811 175.239 238.488 181.019 226.405C182.34 224.423 182.84 222.005 182.413 219.661C181.986 217.317 180.666 215.231 178.731 213.841C157.015 194.453 135.5 174.865 113.944 155.357C109.328 151.343 106.679 150.138 104.953 158.086C99.2526 184.218 92.6294 210.269 86.8893 236.24C85.4844 242.622 83.4372 245.472 76.4126 245.352C53.6529 244.91 30.8531 244.87 8.17369 245.352C0.145581 245.352 -0.978344 242.261 0.627278 235.597C18.8243 159.759 36.901 83.9064 54.8572 8.04075C56.2621 1.97953 58.5902 -0.18806 65.0127 0.0126428C87.7724 0.57461 110.532 0.695052 133.252 0.534489C140.196 0.534489 141.561 3.22392 140.156 9.20486C133.252 38.3469 126.347 67.4488 119.684 96.6309C119.202 98.7985 115.67 101.528 119.002 103.294C122.333 105.06 123.819 101.127 125.384 98.9992C147.742 69.4156 170.101 39.8722 192.138 10.088C193.667 7.51463 195.87 5.40725 198.508 3.99264C201.146 2.57803 204.12 1.90976 207.11 2.05985C242.233 2.34083 276.995 2.18027 315.128 2.18027Z" fill="white"/>
</g>
<defs>
<clipPath id="clip0_146_3960">
<rect width="320" height="360" fill="white"/>
</clipPath>
</defs>
</svg>
