<svg width="24" height="24" viewBox="0 0 24 24" fill="none" xmlns="http://www.w3.org/2000/svg">
<path fill-rule="evenodd" clip-rule="evenodd" d="M21.6 12C21.6 17.302 17.302 21.6 12 21.6C6.69809 21.6 2.40002 17.302 2.40002 12C2.40002 6.69809 6.69809 2.40002 12 2.40002C17.302 2.40002 21.6 6.69809 21.6 12ZM14.4 8.40002C14.4 9.72551 13.3255 10.8 12 10.8C10.6745 10.8 9.60002 9.72551 9.60002 8.40002C9.60002 7.07454 10.6745 6.00002 12 6.00002C13.3255 6.00002 14.4 7.07454 14.4 8.40002ZM11.9999 13.2C9.57889 13.2 7.49276 14.634 6.54451 16.6989C7.86486 18.2305 9.81921 19.2 12 19.2C14.1808 19.2 16.1351 18.2305 17.4554 16.699C16.5072 14.634 14.421 13.2 11.9999 13.2Z" fill="#73BEC5"/>
</svg>
